<?xml version="1.0" encoding="utf-8"?>
<!-- Generator: Adobe Illustrator 16.0.0, SVG Export Plug-In . SVG Version: 6.00 Build 0)  -->
<!DOCTYPE svg PUBLIC "-//W3C//DTD SVG 1.1//EN" "http://www.w3.org/Graphics/SVG/1.1/DTD/svg11.dtd">
<svg version="1.1" id="Layer_1" xmlns="http://www.w3.org/2000/svg" xmlns:xlink="http://www.w3.org/1999/xlink" x="0px" y="0px"
	 width="300px" height="80px" viewBox="0 0 300 80" enable-background="new 0 0 300 80" xml:space="preserve">
<g>
	<g>
		<g>
			<path fill="#FFFFFF" d="M257.438,49.871v-0.119l0.7-1.949c-3.941-1.618-8.003-3.114-12.175-4.495l0.58,1.953l1.391,4.61H257.438z
				 M224.856,49.871h9.394l2.2-7.254l0.581-2.076c-5.443-1.495-11.125-2.763-16.926-3.914l0.698,1.843L224.856,49.871z
				 M206.42,34.555c-0.58,4.491-4.41,8.062-9.043,8.062c-5.102,0-9.281-4.147-9.401-9.447c-2.432-0.115-4.862-0.115-7.303-0.115
				h-0.341c0,9.562,7.644,17.163,17.156,17.163c8.232,0,15.075-5.99,16.474-13.935c0-0.232,0.11-0.462,0.11-0.809
				c-2.551-0.344-5.102-0.691-7.652-1.035C206.42,34.439,206.42,34.439,206.42,34.555z M161.656,49.531h7.883V33.402
				c-2.67,0.114-5.332,0.344-7.883,0.576V49.531z M135.678,37.664c-2.551,0.462-5.217,1.152-7.883,1.729v10.02h7.883V37.664z
				 M156.785,34.439c-2.551,0.229-5.218,0.576-7.887,0.92v14.053h7.887V34.439z M122.924,42.502
				c-1.855,0.573-3.711,1.268-5.801,1.268c-1.041,0-1.855-0.232-2.432-0.809c-2.67,0.809-5.221,1.843-7.772,2.766
				c1.392,3.568,4.872,4.957,9.394,4.957c3.131,0,5.916-0.812,8.812-1.848L122.924,42.502z M68.302,47.685l-2.551-6.105
				c-2.436,1.038-5.682,1.729-8.348,1.729c-4.871,0-8.352-2.419-8.813-7.372h21.337c0.23-1.496,0.461-2.881,0.461-4.376
				c0-9.101-5.448-15.663-14.956-15.663c-10.208,0-15.424,7.715-15.424,17.158c0,10.139,6.727,17.053,16.93,17.053
				C60.88,50.107,64.707,49.176,68.302,47.685z M55.432,22.345c4.406,0,6.723,3.225,6.723,7.372H48.471
				C48.705,25.802,51.141,22.345,55.432,22.345z M213.023,16.701v0.114h0.04L213.023,16.701z M227.988,33.746l-5.683-16.931h-9.242
				l5.42,15.32C221.726,32.597,224.856,33.17,227.988,33.746z M253.156,39.507l-8.242-22.806h-7.533l-6.373,17.506
				c2.542,0.462,4.982,1.038,7.422,1.729l2.662-8.867l3.131,10.363c5.451,1.499,10.673,3.228,15.775,5.186l9.162-25.916h-8.582
				L253.156,39.507z M197.138,16.011c-8.231,0-15.073,5.99-16.585,13.82c1.74,0,3.601-0.114,5.341-0.114h2.662
				c1.399-3.457,4.88-5.991,8.702-5.991c4.061,0,7.652,2.995,8.812,6.91c2.671,0.232,5.332,0.462,8.002,0.809
				C213.143,22.691,205.959,16.011,197.138,16.011z M169.429,30.293v-6.105c0-0.229-0.12-0.69-0.12-0.69
				c1.971-0.576,3.942-0.806,5.913-0.806c1.509,0,3.25,0.344,4.409,0.691l2.434-6.796c-1.732-0.462-4.053-0.69-6.033-0.69
				c-5.221,0-10.322,1.61-15.066,3.567c0,0,0.58,3.228,0.58,4.953v6.566C164.207,30.754,166.869,30.521,169.429,30.293z
				 M148.898,32.712c2.669-0.462,5.221-0.806,7.887-1.038v-4.029c0-7.258-3.941-11.634-11.249-11.634
				c-3.361,0-6.727,0.805-9.742,2.187V0l-7.999,3.11v33.745c2.666-0.69,5.217-1.267,7.883-1.84v-9.79
				c2.205-1.267,4.987-2.419,7.653-2.419c3.25,0,5.567,2.419,5.567,5.986V32.712z M106.224,41.465c0,0.69,0.116,1.381,0.116,1.957
				c2.551-0.92,5.102-1.843,7.771-2.648V23.497h9.273v-6.796h-9.273V6.105l-7.888,3.109v7.601l-3.711,0.229v6.104l3.711,0.233
				V41.465z M87.322,15.896c-4.061,0-8.932,1.034-12.874,2.877l2.667,5.99c2.785-1.152,6.262-1.957,9.162-1.957
				c1.971,0,5.567,0.229,5.567,2.995c0,5.758-20.526,1.148-20.526,14.396c0,7.715,8.467,10.02,14.844,10.02
				c1.971,0,3.596-0.11,4.871-0.347c2.897-1.382,5.797-2.645,8.694-3.797V26.606C99.728,19.006,94.395,15.896,87.322,15.896z
				 M91.844,41.465c0,0.461,0,1.381,0,1.381c-1.855,0.576-3.711,0.806-5.682,0.806c-2.669-0.114-6.031-0.69-6.031-4.029
				c0-3.687,9.047-2.42,11.713-4.953V41.465z M28.179,22.691H8.348V3.11L0,6.334v43.078h8.348V29.487h19.831v19.925h8.233V3.11
				l-8.233,3.224V22.691z M105.295,66.8l-5.448,11.981h1.971l1.275-2.999h6.263l1.275,2.999h1.971L107.15,66.8H105.295z
				 M103.673,74.29l2.551-5.88l2.552,5.88H103.673z M293.159,66.8h-3.712v11.981h3.712c4.171,0,6.842-2.067,6.842-6.101
				C300.001,68.986,296.988,66.8,293.159,66.8z M293.159,77.171h-1.972V68.3h2.201c2.671,0,4.642,1.618,4.642,4.381
				C298.03,75.782,296.29,77.171,293.159,77.171z M247.012,77.053L244.223,66.8h-2.551l-2.781,10.253L235.87,66.8h-1.962
				l3.822,11.981h2.439l2.781-10.481l2.781,10.481h2.321l3.94-11.981h-1.979L247.012,77.053z M183.573,72.443h-1.74v-0.11
				c-0.12,1.381-0.342,2.187-0.811,2.873l-2.551-2.763c1.391-0.576,2.781-1.609,2.781-3.102c0-1.847-1.501-2.652-3.131-2.652
				c-1.852,0-3.362,0.924-3.362,2.763c0,1.152,0.691,1.957,1.271,2.763c-1.74,0.694-2.9,1.729-2.9,3.457
				c0,1.957,1.629,3.339,4.061,3.339c1.621,0,2.781-0.349,3.721-1.382l1.041,1.152h2.32l-2.209-2.305
				C182.763,75.442,183.343,74.29,183.573,72.443z M177.891,67.952c0.922,0,1.502,0.348,1.502,1.5c0,1.042-1.16,1.729-1.961,2.076
				c-0.352-0.577-1.05-1.271-1.05-2.076C176.382,68.41,177.08,67.952,177.891,67.952z M177.652,77.629
				c-1.382,0-2.541-0.805-2.541-2.187c0-1.152,0.809-1.729,1.739-2.305l3.122,3.339C179.631,76.935,178.812,77.629,177.652,77.629z
				 M152.029,69.682c0-1.271,1.16-1.61,2.205-1.61c0.93,0,1.51,0.118,2.431,0.457l0.239-1.491c-0.93-0.348-1.859-0.466-2.67-0.466
				c-2.32,0-4.061,1.152-4.061,3.228c0,3.687,5.451,2.992,5.451,5.644c0,1.382-1.506,1.958-2.551,1.958
				c-0.93,0-2.086-0.348-2.666-0.576l-0.234,1.618c0.814,0.22,1.74,0.458,2.67,0.458c2.551,0,4.641-1.034,4.641-3.576
				C157.484,71.409,152.029,71.867,152.029,69.682z M137.418,66.8h-3.711v11.981h3.711c4.177,0,6.843-2.067,6.843-6.101
				C144.261,68.986,141.245,66.8,137.418,66.8z M137.303,77.171h-1.855V68.3h2.087c2.666,0,4.641,1.618,4.641,4.381
				C142.175,75.782,140.435,77.171,137.303,77.171z M226.248,76.358l-5.683-9.559h-2.44v11.981h1.86v-9.795l5.801,9.795h2.321V66.8
				h-1.859V76.358z M261.038,66.8l-5.451,11.981h1.971l1.278-2.999h6.263l1.28,2.999h1.962L263.009,66.8H261.038z M259.418,74.29
				l2.55-5.88l2.551,5.88H259.418z M279.594,72.909c1.51-0.229,2.67-1.263,2.67-2.771c0-2.873-2.439-3.22-4.99-3.22h-3.131v11.862
				h1.971v-5.296h1.049c0.922,0,1.621,0,2.082,1.145l1.971,4.151h2.09l-2.439-4.72C280.523,73.367,280.174,73.02,279.594,72.909z
				 M277.623,71.867h-1.51V68.3h1.74c1.74,0,2.551,0.687,2.551,1.729C280.404,71.181,279.363,71.867,277.623,71.867z M91.264,77.053
				L88.482,66.8h-2.554l-2.782,10.253L80.131,66.8H78.16l3.826,11.981h2.436L87.204,68.3l2.785,10.481h2.32L96.25,66.8H94.28
				L91.264,77.053z M123.85,72.909c1.51-0.229,2.666-1.263,2.666-2.771c0-2.873-2.432-3.22-4.986-3.22h-3.131v11.862h1.975v-5.296
				h1.041c0.93,0,1.625,0,2.09,1.145l1.971,4.151h2.086l-2.436-4.72C124.779,73.367,124.43,73.02,123.85,72.909z M121.879,71.867
				h-1.506V68.3h1.736c1.74,0,2.555,0.687,2.555,1.729C124.664,71.181,123.619,71.867,121.879,71.867z M205.26,66.571
				c-3.83,0-6.143,2.651-6.143,6.22c0,3.567,2.201,6.22,6.143,6.22s6.143-2.534,6.143-6.22
				C211.402,69.223,209.082,66.571,205.26,66.571z M205.26,77.51c-2.9-0.109-4.18-2.414-4.18-4.719c0-2.416,1.398-4.72,4.18-4.602
				c2.781,0,4.172,2.186,4.172,4.602C209.432,75.206,208.161,77.51,205.26,77.51z M68.536,66.919h-3.365v11.862h1.856v-4.72h1.74
				c2.32,0,4.522-0.924,4.522-3.567C73.289,67.724,71.087,66.919,68.536,66.919z M68.651,72.443h-1.855V68.3h1.622
				c1.16,0,2.785,0.576,2.785,2.075C71.203,71.985,69.812,72.443,68.651,72.443z M56.012,73.596c0,2.305-0.814,3.914-3.135,3.914
				c-2.316,0-3.131-1.609-3.131-3.914V66.8h-1.855v7.033c0,3.338,1.855,5.178,4.986,5.178c3.135,0,4.987-1.84,4.987-5.178V66.8
				h-1.852V73.596z"/>
		</g>
	</g>
</g>
</svg>
