<?xml version="1.0" encoding="utf-8"?>
<!-- Generator: Adobe Illustrator 16.0.0, SVG Export Plug-In . SVG Version: 6.00 Build 0)  -->
<!DOCTYPE svg PUBLIC "-//W3C//DTD SVG 1.1//EN" "http://www.w3.org/Graphics/SVG/1.1/DTD/svg11.dtd">
<svg version="1.1" id="Layer_1" xmlns="http://www.w3.org/2000/svg" xmlns:xlink="http://www.w3.org/1999/xlink" x="0px" y="0px"
	 width="300px" height="57px" viewBox="0 0 300 57" enable-background="new 0 0 300 57" xml:space="preserve">
<g>
	<g>
		<path fill="#FFFFFF" d="M286.131,55.43v-0.133l0.779-2.166c-4.381-1.798-8.896-3.46-13.533-4.995l0.646,2.17l1.545,5.124H286.131z
			 M249.917,55.43h10.442l2.445-8.062l0.646-2.308c-6.05-1.662-12.365-3.071-18.812-4.351l0.775,2.049L249.917,55.43z
			 M229.427,38.407c-0.645,4.991-4.901,8.96-10.051,8.96c-5.67,0-10.315-4.609-10.448-10.5c-2.703-0.128-5.405-0.128-8.117-0.128
			h-0.379c0,10.628,8.496,19.075,19.068,19.075c9.149,0,16.754-6.656,18.31-15.487c0-0.258,0.123-0.514,0.123-0.899
			c-2.835-0.383-5.671-0.768-8.506-1.151C229.427,38.277,229.427,38.277,229.427,38.407z M179.674,55.052h8.762V37.125
			c-2.968,0.127-5.927,0.383-8.762,0.641V55.052z M150.801,41.862c-2.836,0.513-5.799,1.28-8.762,1.922v11.137h8.762V41.862z
			 M174.26,38.277c-2.835,0.254-5.8,0.641-8.766,1.022v15.62h8.766V38.277z M136.625,47.239c-2.062,0.637-4.125,1.409-6.447,1.409
			c-1.157,0-2.062-0.258-2.703-0.899c-2.967,0.899-5.803,2.05-8.638,3.074c1.547,3.966,5.415,5.51,10.441,5.51
			c3.48,0,6.576-0.902,9.794-2.054L136.625,47.239z M75.915,53l-2.835-6.785c-2.708,1.153-6.315,1.921-9.279,1.921
			c-5.414,0-9.283-2.688-9.795-8.193h23.715c0.256-1.663,0.513-3.202,0.513-4.864c0-10.115-6.055-17.409-16.623-17.409
			c-11.346,0-17.144,8.575-17.144,19.071c0,11.269,7.477,18.954,18.817,18.954C67.666,55.692,71.919,54.657,75.915,53z
			 M61.61,24.836c4.897,0,7.472,3.584,7.472,8.193H53.874C54.134,28.678,56.841,24.836,61.61,24.836z M236.767,18.562v0.126h0.043
			L236.767,18.562z M253.399,37.507l-6.317-18.818H236.81l6.024,17.027C246.439,36.23,249.917,36.867,253.399,37.507z
			 M281.372,43.91l-9.16-25.348h-8.373l-7.083,19.457c2.825,0.514,5.537,1.154,8.249,1.922l2.958-9.855l3.48,11.519
			c6.059,1.666,11.863,3.588,17.533,5.764l10.184-28.804h-9.538L281.372,43.91z M219.111,17.795c-9.148,0-16.754,6.658-18.435,15.36
			c1.935,0,4.003-0.127,5.938-0.127h2.958c1.555-3.842,5.423-6.658,9.672-6.658c4.513,0,8.505,3.329,9.794,7.68
			c2.969,0.258,5.927,0.514,8.895,0.899C236.899,25.22,228.915,17.795,219.111,17.795z M188.313,33.669v-6.786
			c0-0.254-0.134-0.767-0.134-0.767c2.19-0.641,4.382-0.896,6.573-0.896c1.676,0,3.612,0.382,4.899,0.768l2.705-7.553
			c-1.925-0.513-4.505-0.767-6.705-0.767c-5.804,0-11.473,1.789-16.746,3.964c0,0,0.646,3.588,0.646,5.505v7.297
			C182.509,34.182,185.468,33.923,188.313,33.669z M165.494,36.358c2.966-0.513,5.803-0.896,8.766-1.154v-4.478
			c0-8.066-4.381-12.931-12.503-12.931c-3.735,0-7.477,0.895-10.827,2.431V0l-8.891,3.457v37.506
			c2.963-0.767,5.799-1.409,8.762-2.045V28.037c2.45-1.408,5.542-2.688,8.506-2.688c3.612,0,6.188,2.688,6.188,6.653V36.358z
			 M118.063,46.086c0,0.767,0.129,1.535,0.129,2.176c2.835-1.022,5.67-2.048,8.637-2.943V26.116h10.306v-7.554H126.83V6.786
			l-8.767,3.455v8.448l-4.125,0.255v6.784l4.125,0.259L118.063,46.086L118.063,46.086z M97.055,17.668
			c-4.513,0-9.927,1.149-14.309,3.197l2.964,6.658c3.095-1.281,6.959-2.175,10.183-2.175c2.191,0,6.188,0.254,6.188,3.328
			c0,6.4-22.814,1.277-22.814,16c0,8.575,9.411,11.137,16.499,11.137c2.19,0,3.997-0.121,5.414-0.385
			c3.22-1.536,6.443-2.94,9.663-4.221V29.571C110.843,21.124,104.916,17.668,97.055,17.668z M102.081,46.086
			c0,0.513,0,1.535,0,1.535c-2.062,0.641-4.125,0.896-6.315,0.896c-2.966-0.127-6.704-0.768-6.704-4.479
			c0-4.098,10.056-2.689,13.019-5.505V46.086z M31.32,25.22H9.279V3.457L0,7.04v47.88h9.279V32.773H31.32V54.92h9.151V3.457
			L31.32,7.04V25.22L31.32,25.22z"/>
	</g>
</g>
</svg>
