<?xml version="1.0" encoding="utf-8"?>
<!-- Generator: Adobe Illustrator 16.0.0, SVG Export Plug-In . SVG Version: 6.00 Build 0)  -->
<!DOCTYPE svg PUBLIC "-//W3C//DTD SVG 1.1//EN" "http://www.w3.org/Graphics/SVG/1.1/DTD/svg11.dtd">
<svg version="1.1" id="Layer_1" xmlns="http://www.w3.org/2000/svg" xmlns:xlink="http://www.w3.org/1999/xlink" x="0px" y="0px"
	 width="270px" height="210px" viewBox="0 0 270 210" enable-background="new 0 0 270 210" xml:space="preserve">
<g>
	<g>
		<path fill="#FFFFFF" d="M135,86.95c-19.354,0-35.1,15.848-35.1,35.323c0,19.478,15.746,35.324,35.1,35.324
			c19.353,0,35.1-15.847,35.1-35.324C170.101,102.798,154.354,86.95,135,86.95z M234.9,35.323h-40.5
			C194.4,15.813,178.687,0,159.301,0H110.7c-19.386,0-35.1,15.813-35.1,35.323H35.1C15.714,35.323,0,51.137,0,70.648V173.9
			c0,19.51,15.714,35.325,35.1,35.325h199.8c19.388,0,35.101-15.815,35.101-35.325V70.648
			C270.001,51.137,254.288,35.323,234.9,35.323z M135,184.771c-34.244,0-62.1-28.037-62.1-62.498
			c0-34.459,27.856-62.496,62.1-62.496c34.245,0,62.1,28.037,62.1,62.496C197.101,156.734,169.245,184.771,135,184.771z"/>
	</g>
</g>
</svg>
