<?xml version="1.0" encoding="utf-8"?>
<!-- Generator: Adobe Illustrator 16.0.0, SVG Export Plug-In . SVG Version: 6.00 Build 0)  -->
<!DOCTYPE svg PUBLIC "-//W3C//DTD SVG 1.1//EN" "http://www.w3.org/Graphics/SVG/1.1/DTD/svg11.dtd">
<svg version="1.1" id="Layer_1" xmlns="http://www.w3.org/2000/svg" xmlns:xlink="http://www.w3.org/1999/xlink" x="0px" y="0px"
	 width="45px" height="45px" viewBox="0 0 45 45" enable-background="new 0 0 45 45" xml:space="preserve">
<g>
	<g>
		<path fill="#ED2EF0" d="M18.639,10.756L12.302,7.1c-0.819-0.473-2.161-0.473-2.98,0L1.49,11.621C0.671,12.094,0,13.254,0,14.202
			v16.597c0,0.947,0.671,2.106,1.49,2.581l6.133,3.539c0.819,0.472,1.49,0.086,1.49-0.86V19.692c0-0.946,0.67-2.107,1.49-2.58
			l8.035-4.637C19.458,12.004,19.458,11.229,18.639,10.756z M15.118,5.475l6.337,3.656c0.819,0.473,2.161,0.473,2.98,0l5.892-3.399
			c0.82-0.473,0.82-1.247,0-1.72L23.99,0.355c-0.819-0.474-2.16-0.474-2.98,0l-5.892,3.399C14.299,4.229,14.299,5.002,15.118,5.475z
			 M32.472,18.737l-8.036-4.637c-0.819-0.473-2.161-0.473-2.98,0l-8.036,4.637c-0.819,0.474-1.49,1.634-1.49,2.581v16.366
			c0,0.947,0.671,2.107,1.49,2.581l7.591,4.38c0.82,0.475,2.161,0.475,2.98,0l8.482-4.894c0.819-0.475,1.49-1.636,1.49-2.58V21.318
			h-0.001C33.962,20.371,33.292,19.211,32.472,18.737z M43.51,11.621l-7.386-4.264c-0.82-0.473-2.161-0.473-2.981,0l-5.891,3.399
			c-0.819,0.473-0.819,1.247,0,1.72l8.035,4.636c0.82,0.473,1.49,1.634,1.49,2.58v15.853c0,0.945,0.671,1.333,1.49,0.859
			l5.242-3.025c0.82-0.474,1.49-1.634,1.49-2.58V14.202C45,13.255,44.33,12.094,43.51,11.621z"/>
	</g>
</g>
</svg>
