<?xml version="1.0" encoding="utf-8"?>
<!-- Generator: Adobe Illustrator 16.0.0, SVG Export Plug-In . SVG Version: 6.00 Build 0)  -->
<!DOCTYPE svg PUBLIC "-//W3C//DTD SVG 1.1//EN" "http://www.w3.org/Graphics/SVG/1.1/DTD/svg11.dtd">
<svg version="1.1" id="Layer_1" xmlns="http://www.w3.org/2000/svg" xmlns:xlink="http://www.w3.org/1999/xlink" x="0px" y="0px"
	 width="46px" height="28px" viewBox="0 0 46 28" enable-background="new 0 0 46 28" xml:space="preserve">
<g>
	<g>
		<path fill="#350083" d="M4.903,27.84h25.426v-2.701H4.903V27.84z M45.564,3.328c-0.951-1.709-3.164-2.35-4.939-1.433
			c0,0-4.854,2.5-10.771,5.552L7.905,0.028c-0.29-0.088-0.666,0.038-0.84,0.277L5.646,2.463C5.474,2.703,5.52,3.051,5.75,3.238
			l12.663,10.109c-2.621,1.35-5.116,2.639-7.258,3.745l-9.349-3.025c-0.272-0.092-0.624,0.026-0.778,0.26l-0.935,1.415
			c-0.153,0.236-0.114,0.587,0.091,0.783c0,0-0.502-0.246,5.661,5.051c0.003,0.004,12.091-0.03,12.199-0.004
			C24.137,18.422,44.079,8.08,44.079,8.08C45.854,7.164,46.52,5.036,45.564,3.328z"/>
	</g>
</g>
</svg>
