    <svg xmlns="http://www.w3.org/2000/svg" width="36" height="30" viewBox="0 0 36 30"><path d="M34.1 12.4c-0.7-0.7-1.6-1-2.5-0.9l-9.9 0.6 -9.6-11.7C11.8 0.2 11.4 0 11 0L9.2 0c-0.5 0-0.8 0.4-0.6 0.8l2.2 5.9L9.6 6.8C9 6.8 8.6 7.3 8.6 7.8 8.6 8.4 9.1 8.8 9.6 8.8l1.8 0 1.5 4 -8.5 0.7 -2.5-2.9c-0.2-0.3-0.6-0.5-1-0.5L0.6 10c-0.4 0-0.7 0.4-0.6 0.8l1.2 4.3 -1 4.4c-0.1 0.4 0.2 0.8 0.6 0.8l0.3 0c0.4 0 0.8-0.2 1-0.6l2.3-3 8.6 0.4 -1.3 4 -1.8 0c-0.6 0-1 0.5-1 1 0 0.6 0.5 1 1 1l1.1 0 -2 6.1c-0.1 0.4 0.2 0.8 0.6 0.8l1.8 0c0.4 0 0.7-0.2 1-0.5l9.1-12 10 0.2c0.9 0 1.9-0.4 2.5-1l0 0C35.3 15.3 35.3 13.6 34.1 12.4z"  fill-opacity="1" fill="gray"/></svg>
