<?xml version="1.0" encoding="utf-8"?>
<!-- Generator: Adobe Illustrator 16.0.0, SVG Export Plug-In . SVG Version: 6.00 Build 0)  -->
<!DOCTYPE svg PUBLIC "-//W3C//DTD SVG 1.1//EN" "http://www.w3.org/Graphics/SVG/1.1/DTD/svg11.dtd">
<svg version="1.1" id="Layer_1" xmlns="http://www.w3.org/2000/svg" xmlns:xlink="http://www.w3.org/1999/xlink" x="0px" y="0px"
	 width="56px" height="48px" viewBox="0 0 56 48" enable-background="new 0 0 56 48" xml:space="preserve">
<path fill="#999999" d="M54.406,19.874c-1.072-1.079-2.498-1.625-4.047-1.507l-15.861,1.012L19.146,0.717
	C18.772,0.285,18.173-0.013,17.535,0l-2.92,0.054c-0.73,0.015-1.218,0.686-0.977,1.343l3.479,9.454l-1.825,0.036
	c-0.913,0.017-1.628,0.737-1.61,1.618c0.018,0.882,0.763,1.574,1.675,1.556l2.92-0.058l2.412,6.391L7.065,21.495L3.136,16.81
	c-0.375-0.521-0.975-0.818-1.66-0.849L1.02,15.97c-0.639,0.012-1.174,0.64-0.979,1.252l1.875,6.931L0.325,31.15
	c-0.124,0.66,0.345,1.269,1.029,1.211l0.456-0.008c0.639-0.013,1.27-0.377,1.625-0.912l3.735-4.832l13.658,0.57l-2.107,6.348
	l-2.919,0.057c-0.913,0.018-1.628,0.736-1.61,1.619c0.018,0.88,0.762,1.57,1.675,1.553l1.825-0.033l-3.134,9.713
	c-0.214,0.666,0.301,1.316,1.031,1.301l2.92-0.055c0.639-0.012,1.181-0.285,1.582-0.779l14.577-19.238l15.891,0.396
	c1.506,0.017,3-0.586,3.982-1.662l0,0C56.281,24.557,56.223,21.735,54.406,19.874z"/>
</svg>
