<?xml version="1.0" encoding="utf-8"?>
<!-- Generator: Adobe Illustrator 16.0.0, SVG Export Plug-In . SVG Version: 6.00 Build 0)  -->
<!DOCTYPE svg PUBLIC "-//W3C//DTD SVG 1.1//EN" "http://www.w3.org/Graphics/SVG/1.1/DTD/svg11.dtd">
<svg version="1.1" id="Layer_1" xmlns="http://www.w3.org/2000/svg" xmlns:xlink="http://www.w3.org/1999/xlink" x="0px" y="0px"
	 width="36px" height="31.277px" viewBox="0 0 36 31.277" enable-background="new 0 0 36 31.277" xml:space="preserve">
<g>
	<path fill="#9017B9" d="M16.625,31.12H0V18.344C0,13.64,0.981,9.928,2.943,7.208C4.904,4.487,8.268,2.084,13.032,0l3.592,6.788
		c-2.93,1.374-4.956,2.74-6.077,4.1c-1.122,1.36-1.745,2.968-1.873,4.824h7.949V31.12z M36,31.12H19.375V18.344
		c0-4.704,0.982-8.416,2.944-11.136C24.28,4.487,27.644,2.084,32.407,0L36,6.788c-2.929,1.374-4.956,2.74-6.076,4.1
		c-1.121,1.36-1.745,2.968-1.873,4.824H36V31.12z"/>
</g>
</svg>
