<svg xmlns="http://www.w3.org/2000/svg" width="26" height="17" viewBox="0 0 26 17">
        <defs>

          <linearGradient id="rgrad__uniqueID_6536915b" x1="0%" y1="45%" x2="100%" y2="46%" gradientUnits="objectBoundingBox">
            <stop offset="0%" style="stop-color:rgb(195, 0, 192); stop-opacity:1"></stop>
            <stop offset="100%" style="stop-color:rgb(15, 0, 67); stop-opacity:1"></stop>
          </linearGradient>

        </defs>

        <!--BACKGROUND-->
        <rect height="90%" width="90%" class="svgBg" y="5%" x="5%" fill="transparent"></rect>
        <!--BACKGROUND-->

        <path fill="url('#rgrad__uniqueID_6536915b')" d="M25.9 10.2C25.6 7.7 23.4 5.9 21 5.8c0.6-2.3 2.1-3.1 3.9-3.7 0.2-0.1 0.1-0.2 0.1-0.2l-0.3-1.8c0 0 0-0.1-0.3-0.1 -6.2 0.7-10.4 5.4-9.6 11.1 0.7 4 3.8 5.5 6.7 5.1C24.4 15.8 26.4 13.1 25.9 10.2L25.9 10.2zM6.2 5.8c0.6-2.3 2.1-3.1 3.9-3.7 0.2-0.1 0.1-0.2 0.1-0.2l-0.3-1.8c0 0 0-0.1-0.3-0.1C3.5 0.7-0.6 5.4 0.1 11.1c0.8 4 3.9 5.5 6.7 5.1 2.9-0.5 4.8-3.1 4.4-6C10.8 7.7 8.7 5.9 6.2 5.8z" fill="#010101"/>
       </svg>
