<?xml version="1.0" encoding="utf-8"?>
<!-- Generator: Adobe Illustrator 16.0.0, SVG Export Plug-In . SVG Version: 6.00 Build 0)  -->
<!DOCTYPE svg PUBLIC "-//W3C//DTD SVG 1.1//EN" "http://www.w3.org/Graphics/SVG/1.1/DTD/svg11.dtd">
<svg version="1.1" id="Layer_1" xmlns="http://www.w3.org/2000/svg" xmlns:xlink="http://www.w3.org/1999/xlink" x="0px" y="0px"
	 width="39px" height="35px" viewBox="0 0 39 35" enable-background="new 0 0 39 35" xml:space="preserve">
<path fill="#620B9E" d="M32.5,21.875c-1.801,0-3.43,0.739-4.607,1.934l-14.926-5.641C12.989,17.949,13,17.726,13,17.501
	c0-0.224-0.011-0.443-0.033-0.659l14.923-5.652c1.178,1.195,2.808,1.935,4.609,1.935c3.59,0,6.5-2.938,6.5-6.562
	C39,2.939,36.09,0,32.5,0S26,2.939,26,6.563c0,0.223,0.011,0.442,0.032,0.659l-14.924,5.65c-1.178-1.194-2.807-1.935-4.608-1.935
	c-3.59,0-6.5,2.938-6.5,6.563c0,3.623,2.91,6.562,6.5,6.562c1.798,0,3.425-0.736,4.602-1.928l14.93,5.643
	C26.011,27.994,26,28.215,26,28.438C26,32.062,28.91,35,32.5,35s6.5-2.938,6.5-6.562C39,24.814,36.09,21.875,32.5,21.875z
	 M32.5,4.375c1.196,0,2.166,0.981,2.166,2.189c0,1.207-0.97,2.187-2.166,2.187c-1.197,0-2.167-0.98-2.167-2.187
	C30.333,5.355,31.303,4.375,32.5,4.375z M6.5,19.688c-1.197,0-2.167-0.979-2.167-2.187c0-1.208,0.97-2.188,2.167-2.188
	c1.196,0,2.167,0.979,2.167,2.188C8.667,18.708,7.696,19.688,6.5,19.688z M32.5,30.625c-1.197,0-2.167-0.979-2.167-2.188
	s0.97-2.188,2.167-2.188c1.196,0,2.166,0.979,2.166,2.188S33.696,30.625,32.5,30.625z"/>
</svg>
