<?xml version="1.0" encoding="utf-8"?>
<!-- Generator: Adobe Illustrator 16.0.0, SVG Export Plug-In . SVG Version: 6.00 Build 0)  -->
<!DOCTYPE svg PUBLIC "-//W3C//DTD SVG 1.1//EN" "http://www.w3.org/Graphics/SVG/1.1/DTD/svg11.dtd">
<svg version="1.1" id="Layer_1" xmlns="http://www.w3.org/2000/svg" xmlns:xlink="http://www.w3.org/1999/xlink" x="0px" y="0px"
	 width="24px" height="22px" viewBox="0 0 24 22" enable-background="new 0 0 24 22" xml:space="preserve">
<path fill="#9017B9" d="M8.625,22c-0.427,0-0.827-0.158-1.12-0.451l-6.988-7.16c-0.667-0.609-0.693-1.643-0.053-2.307
	c0.614-0.663,1.654-0.689,2.32-0.053l5.121,3.633c0.293,0.266,0.747,0.213,0.987-0.105L21.027,0.652
	c0.533-0.715,1.572-0.874,2.293-0.317c0.721,0.53,0.881,1.565,0.32,2.281L9.932,21.336c-0.293,0.373-0.72,0.611-1.174,0.637
	C8.705,22,8.678,22,8.625,22z"/>
</svg>
