<?xml version="1.0" encoding="utf-8"?>
<!-- Generator: Adobe Illustrator 16.0.0, SVG Export Plug-In . SVG Version: 6.00 Build 0)  -->
<!DOCTYPE svg PUBLIC "-//W3C//DTD SVG 1.1//EN" "http://www.w3.org/Graphics/SVG/1.1/DTD/svg11.dtd">
<svg version="1.1" id="Layer_1" xmlns="http://www.w3.org/2000/svg" xmlns:xlink="http://www.w3.org/1999/xlink" x="0px" y="0px"
	 width="28px" height="23px" viewBox="0 0 28 23" enable-background="new 0 0 28 23" xml:space="preserve">
<path fill="#FFFFFF" d="M28,2.723c-1.031,0.462-2.137,0.774-3.299,0.914c1.186-0.718,2.096-1.856,2.525-3.212
	c-1.109,0.665-2.34,1.148-3.648,1.409C22.531,0.705,21.037,0,19.385,0c-3.172,0-5.744,2.6-5.744,5.806
	c0,0.455,0.051,0.898,0.149,1.324C9.015,6.887,4.782,4.576,1.949,1.063C1.455,1.92,1.171,2.918,1.171,3.981
	c0,2.015,1.014,3.792,2.556,4.833c-0.942-0.03-1.828-0.292-2.602-0.727c0,0.024,0,0.048,0,0.073c0,2.813,1.98,5.161,4.608,5.694
	c-0.482,0.133-0.99,0.203-1.513,0.203c-0.371,0-0.73-0.036-1.081-0.104c0.731,2.307,2.853,3.985,5.366,4.031
	c-1.966,1.558-4.443,2.486-7.134,2.486c-0.464,0-0.921-0.027-1.37-0.081C2.542,22.039,5.562,23,8.806,23
	C19.371,23,25.15,14.152,25.15,6.479c0-0.252-0.006-0.502-0.018-0.751C26.256,4.91,27.23,3.887,28,2.723z"/>
</svg>
